<svg xmlns="http://www.w3.org/2000/svg" viewBox="0 0 400 400" width="400" height="400">
  <defs>
    <linearGradient id="bg" x1="0%" y1="0%" x2="100%" y2="100%">
      <stop offset="0%" style="stop-color:#e8eaf6"/>
      <stop offset="100%" style="stop-color:#c5cae9"/>
    </linearGradient>
  </defs>
  <rect width="400" height="400" rx="12" fill="url(#bg)"/>
  <!-- Shield icon -->
  <path d="M200 60 L260 85 L260 160 L200 200 L140 160 L140 85 Z" fill="#3f51b5" stroke="#303f9f" stroke-width="2"/>
  <path d="M200 75 L248 95 L248 152 L200 185 L152 152 L152 95 Z" fill="#5c6bc0"/>
  <!-- Checkmark inside shield -->
  <path d="M180 130 L195 148 L225 110" stroke="#ffffff" stroke-width="5" fill="none" stroke-linecap="round" stroke-linejoin="round"/>
  <!-- Camera icons around -->
  <circle cx="90" cy="120" r="15" fill="#e8eaf6" stroke="#7986cb" stroke-width="2"/>
  <circle cx="90" cy="120" r="6" fill="#3f51b5"/>
  <circle cx="310" cy="120" r="15" fill="#e8eaf6" stroke="#7986cb" stroke-width="2"/>
  <circle cx="310" cy="120" r="6" fill="#3f51b5"/>
  <circle cx="90" cy="200" r="15" fill="#e8eaf6" stroke="#7986cb" stroke-width="2"/>
  <circle cx="90" cy="200" r="6" fill="#3f51b5"/>
  <circle cx="310" cy="200" r="15" fill="#e8eaf6" stroke="#7986cb" stroke-width="2"/>
  <circle cx="310" cy="200" r="6" fill="#3f51b5"/>
  <!-- Connection lines -->
  <line x1="105" y1="120" x2="140" y2="120" stroke="#7986cb" stroke-width="1.5" stroke-dasharray="4,3"/>
  <line x1="295" y1="120" x2="260" y2="120" stroke="#7986cb" stroke-width="1.5" stroke-dasharray="4,3"/>
  <line x1="105" y1="200" x2="140" y2="180" stroke="#7986cb" stroke-width="1.5" stroke-dasharray="4,3"/>
  <line x1="295" y1="200" x2="260" y2="180" stroke="#7986cb" stroke-width="1.5" stroke-dasharray="4,3"/>
  <!-- BASIC badge -->
  <rect x="155" y="215" width="90" height="28" rx="14" fill="#3f51b5"/>
  <text x="200" y="234" text-anchor="middle" font-family="Arial, sans-serif" font-size="12" font-weight="bold" fill="#ffffff">BASIC</text>
  <!-- Label -->
  <text x="200" y="290" text-anchor="middle" font-family="Arial, sans-serif" font-size="16" font-weight="bold" fill="#283593">AMC - Basic</text>
  <text x="200" y="312" text-anchor="middle" font-family="Arial, sans-serif" font-size="11" fill="#3949ab">Up to 4 Cameras | 2 Visits/Year</text>
  <text x="200" y="330" text-anchor="middle" font-family="Arial, sans-serif" font-size="10" fill="#5c6bc0">₹5,000 per year</text>
</svg>