<svg xmlns="http://www.w3.org/2000/svg" viewBox="0 0 400 400" width="400" height="400">
  <defs>
    <linearGradient id="bg" x1="0%" y1="0%" x2="100%" y2="100%">
      <stop offset="0%" style="stop-color:#fff8e1"/>
      <stop offset="100%" style="stop-color:#ffecb3"/>
    </linearGradient>
    <linearGradient id="gold" x1="0%" y1="0%" x2="100%" y2="100%">
      <stop offset="0%" style="stop-color:#ffc107"/>
      <stop offset="100%" style="stop-color:#ff8f00"/>
    </linearGradient>
  </defs>
  <rect width="400" height="400" rx="12" fill="url(#bg)"/>
  <!-- Crown/Premium shield -->
  <path d="M200 50 L275 80 L275 175 L200 220 L125 175 L125 80 Z" fill="url(#gold)" stroke="#e65100" stroke-width="2"/>
  <path d="M200 65 L263 90 L263 167 L200 207 L137 167 L137 90 Z" fill="#ffb300"/>
  <!-- Crown icon -->
  <path d="M175 110 L185 95 L200 115 L215 95 L225 110 L225 130 L175 130 Z" fill="#ffffff" stroke="#fff8e1" stroke-width="1"/>
  <circle cx="185" cy="95" r="3" fill="#ffffff"/>
  <circle cx="200" cy="88" r="3" fill="#ffffff"/>
  <circle cx="215" cy="95" r="3" fill="#ffffff"/>
  <!-- Text inside -->
  <text x="200" y="155" text-anchor="middle" font-family="Arial, sans-serif" font-size="11" font-weight="bold" fill="#ffffff">PREMIUM</text>
  <text x="200" y="170" text-anchor="middle" font-family="Arial, sans-serif" font-size="9" fill="#fff8e1">24/7 SUPPORT</text>
  <!-- Unlimited badge -->
  <text x="200" y="195" text-anchor="middle" font-family="Arial, sans-serif" font-size="20" fill="#ffffff">∞</text>
  <!-- Camera grid icons -->
  <g transform="translate(60, 235)" opacity="0.8">
    <circle cx="0" cy="0" r="8" fill="#ffb300" stroke="#ff8f00" stroke-width="1"/>
    <circle cx="25" cy="0" r="8" fill="#ffb300" stroke="#ff8f00" stroke-width="1"/>
    <circle cx="50" cy="0" r="8" fill="#ffb300" stroke="#ff8f00" stroke-width="1"/>
    <circle cx="75" cy="0" r="8" fill="#ffb300" stroke="#ff8f00" stroke-width="1"/>
    <circle cx="100" cy="0" r="8" fill="#ffb300" stroke="#ff8f00" stroke-width="1"/>
    <circle cx="125" cy="0" r="8" fill="#ffb300" stroke="#ff8f00" stroke-width="1"/>
    <circle cx="150" cy="0" r="8" fill="#ffb300" stroke="#ff8f00" stroke-width="1"/>
    <circle cx="175" cy="0" r="8" fill="#ffb300" stroke="#ff8f00" stroke-width="1"/>
    <circle cx="200" cy="0" r="8" fill="#ffb300" stroke="#ff8f00" stroke-width="1"/>
    <circle cx="225" cy="0" r="8" fill="#ffb300" stroke="#ff8f00" stroke-width="1"/>
    <circle cx="250" cy="0" r="8" fill="#ffb300" stroke="#ff8f00" stroke-width="1"/>
    <circle cx="275" cy="0" r="8" fill="#ffb300" stroke="#ff8f00" stroke-width="1"/>
  </g>
  <text x="200" y="262" text-anchor="middle" font-family="Arial, sans-serif" font-size="8" fill="#e65100">Up to 16 cameras</text>
  <!-- Label -->
  <text x="200" y="310" text-anchor="middle" font-family="Arial, sans-serif" font-size="16" font-weight="bold" fill="#e65100">AMC - Premium</text>
  <text x="200" y="332" text-anchor="middle" font-family="Arial, sans-serif" font-size="11" fill="#f57c00">16 Cameras | Unlimited Support</text>
  <text x="200" y="350" text-anchor="middle" font-family="Arial, sans-serif" font-size="10" fill="#ff9800">₹20,000 per year</text>
</svg>